<svg xmlns="http://www.w3.org/2000/svg" viewBox="0 0 24 24" fill="none">
  <path d="M19.665 17.112c-.29.617-.425.89-.795 1.436-.514.757-1.24 1.7-2.136 1.71-.932.01-1.233-.553-2.299-.547-1.066.005-1.397.558-2.33.548-.895-.01-1.58-.86-2.095-1.617-1.437-2.115-1.587-4.596-.7-5.925.63-.947 1.755-1.546 2.804-1.546 1.067 0 1.737.553 2.618.553.862 0 1.388-.554 2.63-.554.94 0 1.937.513 2.646 1.4-2.322 1.268-1.944 4.575.657 4.542zM15.692 8.09c.452-.582.802-1.397.673-2.22-.74.048-1.61.524-2.123 1.165-.46.572-.843 1.388-.697 2.19.804.026 1.625-.467 2.147-1.135z" fill="#000"/>
</svg> 