<svg xmlns="http://www.w3.org/2000/svg" viewBox="0 0 48 24" fill="none">
  <path d="M24.643 10.709c0-.542-.048-1.126-.137-1.71h-8.506v3.237h4.869c-.21 1.125-.843 2.078-1.796 2.715v2.26h2.908c1.701-1.567 2.682-3.873 2.682-6.502z" fill="#4285F4"/>
  <path d="M16 19c2.43 0 4.467-.807 5.956-2.19l-2.908-2.259c-.806.54-1.837.858-3.048.858-2.344 0-4.328-1.584-5.036-3.711H7.957v2.332C9.438 16.983 12.482 19 16 19z" fill="#34A853"/>
  <path d="M10.964 11.698c-.18-.54-.282-1.117-.282-1.698s.102-1.158.282-1.698V6.27H7.957a7.998 7.998 0 000 7.46l3.007-2.032z" fill="#FBBC04"/>
  <path d="M16 8.29c1.321 0 2.508.454 3.44 1.345l2.582-2.58C20.463 5.59 18.426 4.75 16 4.75c-3.518 0-6.562 2.017-8.043 4.97l3.007 2.032c.708-2.127 2.692-3.711 5.036-3.711z" fill="#EA4335"/>
  <path d="M32 12.5c0-.276.224-.5.5-.5h2c.276 0 .5.224.5.5s-.224.5-.5.5h-2c-.276 0-.5-.224-.5-.5z" fill="#5F6368"/>
  <path d="M37 12.5c0-.276.224-.5.5-.5h2c.276 0 .5.224.5.5s-.224.5-.5.5h-2c-.276 0-.5-.224-.5-.5z" fill="#5F6368"/>
</svg> 