<?xml version="1.0" encoding="UTF-8"?>
<svg width="120px" height="40px" viewBox="0 0 120 40" version="1.1" xmlns="http://www.w3.org/2000/svg">
    <g stroke="none" stroke-width="1" fill="none" fill-rule="evenodd">
        <rect fill="#000000" x="0" y="0" width="120" height="40" rx="4"/>
        <path d="M30.954,12.089 C32.648,12.089 34.052,13.117 34.771,13.117 C34.842,13.117 34.948,13.082 34.948,12.976 C34.948,12.905 33.897,11.877 33.897,9.892 C33.897,7.695 35.561,6.526 35.561,6.49 C35.561,6.455 35.419,6.278 35.419,6.278 C34.234,6.526 32.93,7.448 32.324,8.582 C31.612,7.448 30.383,6.526 29.021,6.526 C26.611,6.526 24.705,8.441 24.705,10.85 C24.705,13.223 26.611,15.174 29.021,15.174 C30.383,15.174 31.612,14.252 32.324,13.117 C32.824,13.117 33.324,12.976 33.824,12.799 C33.824,12.764 33.789,12.729 33.753,12.729 C33.253,12.976 32.436,13.117 31.93,13.117 C31.177,13.117 30.954,12.089 30.954,12.089 Z" fill="#FFFFFF"/>
        <path d="M45.5,20.5 L47,20.5 C47.276,20.5 47.5,20.724 47.5,21 L47.5,29 C47.5,29.276 47.276,29.5 47,29.5 L45.5,29.5 C45.224,29.5 45,29.276 45,29 L45,21 C45,20.724 45.224,20.5 45.5,20.5 Z" fill="#FFFFFF"/>
        <path d="M49.5,23.5 L51,23.5 C51.276,23.5 51.5,23.724 51.5,24 L51.5,29 C51.5,29.276 51.276,29.5 51,29.5 L49.5,29.5 C49.224,29.5 49,29.276 49,29 L49,24 C49,23.724 49.224,23.5 49.5,23.5 Z" fill="#FFFFFF"/>
        <path d="M50.25,21.5 C50.94,21.5 51.5,22.06 51.5,22.75 C51.5,23.44 50.94,24 50.25,24 C49.56,24 49,23.44 49,22.75 C49,22.06 49.56,21.5 50.25,21.5 Z" fill="#FFFFFF"/>
        <path d="M54.5,20.5 L56,20.5 C56.276,20.5 56.5,20.724 56.5,21 L56.5,29 C56.5,29.276 56.276,29.5 56,29.5 L54.5,29.5 C54.224,29.5 54,29.276 54,29 L54,21 C54,20.724 54.224,20.5 54.5,20.5 Z" fill="#FFFFFF"/>
        <path d="M59.5,20.5 L61,20.5 C61.276,20.5 61.5,20.724 61.5,21 L61.5,21.5 C62.5,20.5 63.5,20 65,20 C67.5,20 69,21.5 69,24 L69,29 C69,29.276 68.776,29.5 68.5,29.5 L67,29.5 C66.724,29.5 66.5,29.276 66.5,29 L66.5,24.5 C66.5,23 65.5,22 64,22 C62.5,22 61.5,23 61.5,24.5 L61.5,29 C61.5,29.276 61.276,29.5 61,29.5 L59.5,29.5 C59.224,29.5 59,29.276 59,29 L59,21 C59,20.724 59.224,20.5 59.5,20.5 Z" fill="#FFFFFF"/>
        <path d="M71.5,26.5 C71.5,24.5 73,23 75,23 C77,23 78.5,24.5 78.5,26.5 C78.5,28.5 77,30 75,30 C73,30 71.5,28.5 71.5,26.5 Z M76,26.5 C76,25.5 75.5,25 75,25 C74.5,25 74,25.5 74,26.5 C74,27.5 74.5,28 75,28 C75.5,28 76,27.5 76,26.5 Z" fill="#FFFFFF"/>
        <path d="M80.5,23.5 L82,23.5 C82.276,23.5 82.5,23.724 82.5,24 L82.5,24.5 C83,23.5 84,23 85.5,23 C87,23 88,23.5 88.5,24.5 C89,23.5 90,23 91.5,23 C93.5,23 95,24.5 95,26.5 L95,29 C95,29.276 94.776,29.5 94.5,29.5 L93,29.5 C92.724,29.5 92.5,29.276 92.5,29 L92.5,26.5 C92.5,25.5 92,25 91,25 C90,25 89.5,25.5 89.5,26.5 L89.5,29 C89.5,29.276 89.276,29.5 89,29.5 L87.5,29.5 C87.224,29.5 87,29.276 87,29 L87,26.5 C87,25.5 86.5,25 85.5,25 C84.5,25 84,25.5 84,26.5 L84,29 C84,29.276 83.776,29.5 83.5,29.5 L82,29.5 C81.724,29.5 81.5,29.276 81.5,29 L81.5,24 C81.5,23.724 81.724,23.5 82,23.5 Z" fill="#FFFFFF"/>
    </g>
</svg> 