<?xml version="1.0" encoding="UTF-8"?>
<svg width="120px" height="40px" viewBox="0 0 120 40" version="1.1" xmlns="http://www.w3.org/2000/svg">
    <g stroke="none" stroke-width="1" fill="none" fill-rule="evenodd">
        <g transform="translate(20, 8)" fill="#000000">
            <path d="M37.5,15.5 L37.5,9.5 L40.5,9.5 C42.5,9.5 44,11 44,12.5 C44,14 42.5,15.5 40.5,15.5 L37.5,15.5 Z M38.5,14.5 L40.5,14.5 C42,14.5 43,13.5 43,12.5 C43,11.5 42,10.5 40.5,10.5 L38.5,10.5 L38.5,14.5 Z"/>
            <path d="M45.5,15.5 L45.5,9.5 L46.5,9.5 L46.5,15.5 L45.5,15.5 Z"/>
            <path d="M51.5,15.5 L51.5,10.5 L49.5,10.5 L49.5,9.5 L54.5,9.5 L54.5,10.5 L52.5,10.5 L52.5,15.5 L51.5,15.5 Z"/>
            <path d="M58.5,15.5 L58.5,13 L55.5,9.5 L56.7,9.5 L59,12.2 L61.3,9.5 L62.5,9.5 L59.5,13 L59.5,15.5 L58.5,15.5 Z"/>
            <path d="M66.5,15.7 C64.3,15.7 62.5,13.9 62.5,11.7 C62.5,9.5 64.3,7.7 66.5,7.7 C67.6,7.7 68.6,8.1 69.4,8.9 L68.6,9.7 C68,9.1 67.3,8.8 66.5,8.8 C64.9,8.8 63.6,10.1 63.6,11.7 C63.6,13.3 64.9,14.6 66.5,14.6 C67.4,14.6 68.2,14.2 68.7,13.7 L69.5,14.5 C68.7,15.3 67.7,15.7 66.5,15.7 Z"/>
            <path d="M74.5,15.7 C72.3,15.7 70.5,13.9 70.5,11.7 C70.5,9.5 72.3,7.7 74.5,7.7 C76.7,7.7 78.5,9.5 78.5,11.7 C78.5,13.9 76.7,15.7 74.5,15.7 Z M74.5,14.6 C76.1,14.6 77.4,13.3 77.4,11.7 C77.4,10.1 76.1,8.8 74.5,8.8 C72.9,8.8 71.6,10.1 71.6,11.7 C71.6,13.3 72.9,14.6 74.5,14.6 Z"/>
        </g>
        <g transform="translate(20, 20)" fill="#4285F4">
            <path d="M0,7.3 L0,8.3 C0,9.9 1.3,11.2 2.9,11.2 C4.1,11.2 5,10.6 5.6,9.7 L4.7,9.1 C4.3,9.7 3.7,10.1 2.9,10.1 C1.8,10.1 0.9,9.2 0.9,8.1 L5.8,8.1 L5.8,7.3 C5.8,5.7 4.5,4.4 2.9,4.4 C1.3,4.4 0,5.7 0,7.3 Z M4.9,7 L0.9,7 C1,5.9 1.8,5.5 2.9,5.5 C4,5.5 4.8,5.9 4.9,7 Z"/>
        </g>
        <g transform="translate(20, 20)" fill="#EA4335">
            <path d="M8.3,10.9 L8.3,0.8 L7.4,0.8 L7.4,5.1 C6.8,4.6 6.1,4.4 5.3,4.4 C3.7,4.4 2.4,5.7 2.4,7.3 C2.4,8.9 3.7,10.2 5.3,10.2 C6.1,10.2 6.8,9.9 7.4,9.4 L7.4,10.9 L8.3,10.9 Z M5.3,9.1 C4.2,9.1 3.3,8.2 3.3,7.1 C3.3,6 4.2,5.1 5.3,5.1 C6.4,5.1 7.3,6 7.3,7.1 C7.3,8.2 6.4,9.1 5.3,9.1 Z"/>
        </g>
        <g transform="translate(20, 20)" fill="#FBBC04">
            <path d="M13.3,10.9 L13.3,4.7 L12.4,4.7 L12.4,5.1 C11.8,4.6 11.1,4.4 10.3,4.4 C8.7,4.4 7.4,5.7 7.4,7.3 C7.4,8.9 8.7,10.2 10.3,10.2 C11.1,10.2 11.8,9.9 12.4,9.4 L12.4,10.9 L13.3,10.9 Z M10.3,9.1 C9.2,9.1 8.3,8.2 8.3,7.1 C8.3,6 9.2,5.1 10.3,5.1 C11.4,5.1 12.3,6 12.3,7.1 C12.3,8.2 11.4,9.1 10.3,9.1 Z"/>
        </g>
        <g transform="translate(20, 20)" fill="#34A853">
            <path d="M14.3,10.9 L15.2,10.9 L15.2,0 L14.3,0 L14.3,10.9 Z"/>
        </g>
    </g>
</svg> 